<svg fill="#f0d23c" viewBox="0 0 511.999 511.999" xmlns="http://www.w3.org/2000/svg">
    <path d="M508.18,327.137c-2.083-6.673-9.185-10.393-15.853-8.311c-6.673,2.083-10.394,9.18-8.311,15.853 c4.358,13.962,5.491,33.585-13.872,47.779c-25.487,18.698-73.037,17.936-118.325-1.9c-9.604-4.193-18.867-9.182-27.565-14.847 c-2.854-1.847-5.681-3.797-8.407-5.797c-29.564-21.674-47.215-48.596-47.215-72.014c0-12.995,5.546-23.654,16.481-31.674 c2.173-1.591,4.596-3.095,7.155-4.443c36.163-18.859,100.796-7.006,147.145,26.982c5.636,4.135,13.557,2.915,17.694-2.721 c4.134-5.638,2.915-13.557-2.721-17.692c-26.215-19.224-58.078-32.803-89.721-38.234c-13.959-2.396-27.47-3.134-40.101-2.272 c5.693-10.878,8.813-23.154,8.813-35.952c0-26.041-12.928-49.104-32.686-63.155l23.893-84.506 c1.901-6.726-2.01-13.722-8.736-15.623c-6.729-1.906-13.722,2.009-15.624,8.736l-22.671,80.181 c-6.869-2.001-14.121-3.096-21.626-3.096c-7.029,0-14.033,0.995-20.777,2.864l-22.609-79.95 c-1.902-6.726-8.898-10.641-15.624-8.735c-6.726,1.902-10.638,8.897-8.736,15.624l23.726,83.901 c-20.856,14.35-33.443,37.938-33.443,63.759c0,12.797,3.115,25.07,8.803,35.943c-12.592-0.847-26.062-0.108-39.978,2.281 c-31.642,5.431-63.506,19.01-89.719,38.233C21.518,284.782-0.001,319.335,0,350.781c0.001,20.907,9.53,39.408,26.831,52.09 c16.731,12.269,39.424,18.413,64.784,18.411c20.637-0.001,43.036-4.087,65.408-12.237c2.786,8.002,6.082,15.652,9.869,22.854 c20.43,38.805,53.713,61.972,89.031,61.972c35.334,0,68.622-23.178,89.05-62.008c3.796-7.226,7.091-14.875,9.866-22.848 c22.406,8.174,44.834,12.271,65.498,12.27c25.351,0,48.051-6.145,64.777-18.414C509.27,385.164,517.677,357.559,508.18,327.137z"></path>
</svg>
